<?xml version="1.0" standalone="no"?>
<!DOCTYPE svg PUBLIC "-//W3C//DTD SVG 20010904//EN"
 "http://www.w3.org/TR/2001/REC-SVG-20010904/DTD/svg10.dtd">
<svg version="1.0" xmlns="http://www.w3.org/2000/svg"
 width="512.000000pt" height="512.000000pt" viewBox="0 0 512.000000 512.000000"
 preserveAspectRatio="xMidYMid meet">

<g transform="translate(0.000000,512.000000) scale(0.100000,-0.100000)"
fill="#000000" stroke="none">
<path d="M1441 4511 c-602 -290 -1100 -536 -1107 -546 -12 -16 -14 -325 -14
-1872 l0 -1853 -120 0 -120 0 0 -80 0 -80 2480 0 2480 0 0 80 0 80 -140 0
c-77 0 -140 2 -140 5 0 2 8 20 17 40 l17 35 83 0 83 0 0 328 0 327 -53 145
c-30 80 -89 238 -133 352 l-79 208 -347 0 -348 0 0 -320 0 -320 -40 0 -40 0 0
560 0 560 -640 0 -640 0 0 -560 0 -560 -120 0 -120 0 0 -360 0 -360 125 0 c69
0 125 -2 125 -4 0 -2 7 -20 15 -40 l15 -36 -420 0 -420 0 0 560 0 560 -400 0
-400 0 0 520 0 520 1520 0 1520 0 0 -320 0 -320 80 0 80 0 0 720 0 720 -1680
0 -1680 0 0 -920 0 -920 -160 0 -160 0 0 -560 0 -560 -40 0 -40 0 2 1816 3
1816 1037 499 1038 499 1000 -500 1000 -500 0 -1055 0 -1055 80 0 80 0 0 1091
c0 741 -3 1097 -10 1110 -13 24 -2120 1079 -2152 1078 -13 0 -515 -238 -1117
-528z m2639 -1551 l0 -80 -1520 0 -1520 0 0 80 0 80 1520 0 1520 0 0 -80z m0
-320 l0 -80 -1520 0 -1520 0 0 80 0 80 1520 0 1520 0 0 -80z m-1040 -840 l0
-200 240 0 240 0 0 200 0 200 120 0 120 0 0 -480 0 -480 -480 0 -480 0 0 480
0 480 120 0 120 0 0 -200z m320 80 l0 -120 -80 0 -80 0 0 120 0 120 80 0 80 0
0 -120z m1238 -393 c7 -18 12 -36 12 -40 0 -4 -72 -7 -160 -7 -222 0 -210 14
-210 -240 0 -189 0 -191 25 -215 l24 -25 256 0 255 0 -1 -242 0 -243 -27 55
c-33 68 -92 128 -157 160 -72 35 -198 35 -270 0 -66 -32 -126 -94 -155 -158
l-24 -52 -446 0 -446 0 -24 52 c-29 64 -89 126 -155 158 -72 35 -198 35 -270
0 -66 -32 -126 -94 -155 -158 -23 -51 -24 -52 -67 -52 l-43 0 0 200 0 200 800
0 800 0 0 320 0 320 213 0 213 0 12 -33z m99 -272 c13 -33 26 -67 29 -77 5
-17 -6 -18 -160 -18 l-166 0 0 80 0 81 137 -3 137 -3 23 -60z m-3737 -215 l0
-200 240 0 240 0 0 200 0 200 120 0 120 0 0 -480 0 -480 -480 0 -480 0 0 480
0 480 120 0 120 0 0 -200z m320 80 l0 -120 -80 0 -80 0 0 120 0 120 80 0 80 0
0 -120z m1743 -534 c103 -43 128 -177 48 -257 -65 -65 -157 -65 -222 0 -124
123 13 325 174 257z m1520 0 c103 -43 128 -177 48 -257 -65 -65 -157 -65 -222
0 -124 123 13 325 174 257z m-360 -263 l15 -38 -476 -3 c-261 -1 -477 0 -479
2 -2 2 4 20 13 40 l18 36 447 0 447 0 15 -37z"/>
<path d="M3360 1240 l0 -40 40 0 40 0 0 40 0 40 -40 0 -40 0 0 -40z"/>
<path d="M3520 1240 l0 -40 40 0 40 0 0 40 0 40 -40 0 -40 0 0 -40z"/>
<path d="M1280 440 l0 -40 40 0 40 0 0 40 0 40 -40 0 -40 0 0 -40z"/>
<path d="M1440 440 l0 -40 40 0 40 0 0 40 0 40 -40 0 -40 0 0 -40z"/>
<path d="M2905 455 c-50 -49 -15 -135 55 -135 41 0 80 39 80 80 0 41 -39 80
-80 80 -19 0 -40 -9 -55 -25z"/>
<path d="M4425 455 c-50 -49 -15 -135 55 -135 41 0 80 39 80 80 0 41 -39 80
-80 80 -19 0 -40 -9 -55 -25z"/>
<path d="M1200 3680 l0 -320 1360 0 1360 0 0 320 0 320 -1360 0 -1360 0 0
-320z m2560 0 l0 -160 -1200 0 -1200 0 0 160 0 160 1200 0 1200 0 0 -160z"/>
</g>
</svg>
